<svg width="1200" height="300" viewBox="0 0 1200 300" fill="none" xmlns="http://www.w3.org/2000/svg">
<rect width="1200" height="300" fill="#F1EED9"/>
<path d="M191.84 61.44C189.28 61.44 187.333 61.8667 186 62.72C184.72 63.52 183.787 64.64 183.2 66.08C182.667 67.52 182.213 69.2267 181.84 71.2C181.253 71.2 180.587 71.1467 179.84 71.04C179.093 70.9333 178.48 70.7467 178 70.48C178.427 68.24 178.747 66 178.96 63.76C179.173 61.52 179.28 59.4933 179.28 57.68C180.773 57.7333 182.587 57.7867 184.72 57.84C186.907 57.8933 189.253 57.92 191.76 57.92C194.32 57.92 196.96 57.92 199.68 57.92C202.4 57.92 205.04 57.92 207.6 57.92C210.213 57.92 212.613 57.8933 214.8 57.84C216.987 57.7867 218.8 57.7333 220.24 57.68C220.187 59.6 220.187 61.5733 220.24 63.6C220.347 65.6267 220.507 67.92 220.72 70.48C220.187 70.7467 219.573 70.96 218.88 71.12C218.24 71.2267 217.52 71.2533 216.72 71.2C216.667 68.0533 215.92 65.6533 214.48 64C213.093 62.2933 210.827 61.44 207.68 61.44H191.84ZM195.92 60.08H203.44V101.84C203.44 103.6 203.6 104.987 203.92 106C204.24 106.96 204.853 107.653 205.76 108.08C206.667 108.453 207.973 108.693 209.68 108.8C209.84 109.227 209.947 109.733 210 110.32C210.053 110.853 210.08 111.493 210.08 112.24C208.373 112.133 206.613 112.053 204.8 112C203.04 112 201.307 112 199.6 112C198.48 112 197.28 112 196 112C194.773 112.053 193.573 112.08 192.4 112.08C191.227 112.133 190.133 112.187 189.12 112.24C189.12 111.493 189.147 110.853 189.2 110.32C189.253 109.733 189.36 109.227 189.52 108.8C191.227 108.693 192.533 108.453 193.44 108.08C194.4 107.653 195.04 106.96 195.36 106C195.733 104.987 195.92 103.6 195.92 101.84V60.08ZM260.914 101.84C260.914 104.613 261.288 106.48 262.034 107.44C262.834 108.347 264.034 108.8 265.634 108.8C265.794 109.28 265.901 109.787 265.954 110.32C266.008 110.853 266.034 111.493 266.034 112.24C264.861 112.133 263.528 112.053 262.034 112C260.541 112 258.968 112 257.314 112C256.248 112 255.128 112 253.954 112C252.781 112.053 251.661 112.08 250.594 112.08C249.581 112.133 248.648 112.187 247.794 112.24C247.794 111.493 247.821 110.853 247.874 110.32C247.928 109.733 248.034 109.227 248.194 108.8C250.114 108.8 251.501 108.32 252.354 107.36C253.261 106.347 253.714 104.507 253.714 101.84V89.68C253.714 85.8933 253.021 83.3333 251.634 82C250.248 80.6133 248.461 79.92 246.274 79.92C244.888 79.92 243.501 80.3733 242.114 81.28C240.728 82.1333 239.554 83.5467 238.594 85.52C237.688 87.44 237.234 90.0267 237.234 93.28V101.84C237.234 104.507 237.634 106.347 238.434 107.36C239.234 108.32 240.674 108.8 242.754 108.8C242.914 109.28 243.021 109.787 243.074 110.32C243.128 110.853 243.154 111.493 243.154 112.24C242.408 112.187 241.501 112.133 240.434 112.08C239.368 112.08 238.248 112.053 237.074 112C235.901 112 234.754 112 233.634 112C232.568 112 231.448 112 230.274 112C229.101 112.053 227.981 112.08 226.914 112.08C225.848 112.133 224.914 112.187 224.114 112.24C224.114 111.493 224.141 110.853 224.194 110.32C224.248 109.733 224.354 109.227 224.514 108.8C226.594 108.8 228.034 108.32 228.834 107.36C229.634 106.347 230.034 104.507 230.034 101.84V86L237.234 78.16C237.234 78.8 237.208 79.52 237.154 80.32C237.101 81.12 236.941 81.9733 236.674 82.88C236.834 82.6133 236.994 82.32 237.154 82C237.314 81.6267 237.554 81.2267 237.874 80.8C238.781 79.5733 240.221 78.32 242.194 77.04C244.221 75.7067 246.648 75.04 249.474 75.04C251.501 75.04 253.368 75.4667 255.074 76.32C256.834 77.12 258.248 78.48 259.314 80.4C260.381 82.2667 260.914 84.8267 260.914 88.08V101.84ZM230.034 66C230.034 64.72 229.901 63.68 229.634 62.88C229.421 62.0267 228.888 61.3867 228.034 60.96C227.181 60.5333 225.848 60.32 224.034 60.32C224.034 59.7333 224.088 59.2 224.194 58.72C224.301 58.24 224.488 57.7867 224.754 57.36C225.554 57.36 226.674 57.2267 228.114 56.96C229.608 56.6933 231.048 56.3467 232.434 55.92C233.821 55.4933 234.834 55.0667 235.474 54.64C235.954 54.8 236.354 55.12 236.674 55.6C237.048 56.08 237.234 56.8267 237.234 57.84V68.96H230.034V66ZM230.034 66H237.234V78.16L230.034 87.2V66ZM289.051 112.72C285.264 112.72 282.117 111.867 279.611 110.16C277.104 108.453 275.211 106.16 273.931 103.28C272.704 100.347 272.091 97.1467 272.091 93.68C272.091 90.2667 272.757 87.12 274.091 84.24C275.424 81.36 277.317 79.04 279.771 77.28C282.277 75.52 285.237 74.64 288.651 74.64C292.117 74.64 294.891 75.3867 296.971 76.88C299.104 78.3733 300.677 80.3733 301.691 82.88C302.757 85.3867 303.397 88.16 303.611 91.2C303.397 92.2667 302.997 93.1733 302.411 93.92C301.504 93.92 300.144 93.92 298.331 93.92C296.517 93.92 294.464 93.9467 292.171 94C289.877 94 287.531 94.0533 285.131 94.16C282.731 94.2133 280.464 94.2933 278.331 94.4V90.32H295.291C295.291 86.8 294.651 83.9467 293.371 81.76C292.091 79.5733 290.277 78.48 287.931 78.48C286.651 78.48 285.397 78.88 284.171 79.68C282.944 80.4267 281.931 81.7867 281.131 83.76C280.331 85.68 279.931 88.4267 279.931 92C279.931 94.6133 280.251 97.1733 280.891 99.68C281.584 102.133 282.757 104.187 284.411 105.84C286.117 107.44 288.517 108.24 291.611 108.24C293.371 108.24 295.104 107.84 296.811 107.04C298.517 106.24 300.037 105.093 301.371 103.6C301.797 103.813 302.197 104.187 302.571 104.72C302.997 105.2 303.237 105.653 303.291 106.08C301.477 108.48 299.371 110.187 296.971 111.2C294.624 112.213 291.984 112.72 289.051 112.72ZM351.037 112.72C346.077 112.72 341.677 111.547 337.837 109.2C334.05 106.8 331.064 103.493 328.877 99.28C326.69 95.0133 325.597 90.1067 325.597 84.56C325.597 79.9733 326.344 75.9733 327.837 72.56C329.33 69.1467 331.33 66.2933 333.837 64C336.397 61.7067 339.25 60 342.397 58.88C345.597 57.76 348.904 57.2 352.317 57.2C355.677 57.2 358.744 57.5467 361.517 58.24C364.29 58.9333 367.144 59.9733 370.077 61.36C369.704 63.2267 369.464 65.2267 369.357 67.36C369.25 69.44 369.197 71.5733 369.197 73.76C368.504 74.0267 367.837 74.2133 367.197 74.32C366.557 74.4267 365.81 74.48 364.957 74.48C364.85 70.6933 364.29 67.7867 363.277 65.76C362.264 63.7333 360.877 62.3467 359.117 61.6C357.357 60.8533 355.304 60.48 352.957 60.48C349.597 60.48 346.717 61.0933 344.317 62.32C341.917 63.5467 339.944 65.2 338.397 67.28C336.904 69.3067 335.784 71.6267 335.037 74.24C334.344 76.8533 333.997 79.5733 333.997 82.4C333.997 87.1467 334.797 91.4667 336.397 95.36C338.05 99.2 340.397 102.24 343.437 104.48C346.477 106.72 350.13 107.84 354.397 107.84C356.957 107.84 359.57 107.413 362.237 106.56C364.904 105.707 367.357 104.56 369.597 103.12C369.917 103.387 370.21 103.787 370.477 104.32C370.797 104.8 370.984 105.227 371.037 105.6C367.89 108.053 364.77 109.867 361.677 111.04C358.637 112.16 355.09 112.72 351.037 112.72ZM396.343 112.72C392.716 112.72 389.543 111.947 386.822 110.4C384.103 108.8 381.996 106.587 380.503 103.76C379.009 100.88 378.263 97.52 378.263 93.68C378.263 90.0533 379.036 86.8 380.583 83.92C382.129 81.04 384.263 78.7733 386.983 77.12C389.703 75.4667 392.823 74.64 396.343 74.64C400.129 74.64 403.356 75.44 406.023 77.04C408.743 78.64 410.823 80.88 412.263 83.76C413.703 86.5867 414.423 89.8933 414.423 93.68C414.423 97.3067 413.649 100.56 412.103 103.44C410.609 106.32 408.503 108.587 405.783 110.24C403.116 111.893 399.969 112.72 396.343 112.72ZM396.983 108.88C400.183 108.88 402.556 107.573 404.103 104.96C405.649 102.293 406.423 98.8533 406.423 94.64C406.423 91.3333 405.916 88.48 404.903 86.08C403.943 83.6267 402.636 81.76 400.983 80.48C399.329 79.1467 397.516 78.48 395.543 78.48C392.449 78.48 390.129 79.7333 388.583 82.24C387.089 84.7467 386.343 88 386.343 92C386.343 95.5733 386.769 98.64 387.623 101.2C388.529 103.707 389.783 105.627 391.383 106.96C392.983 108.24 394.849 108.88 396.983 108.88ZM440.761 74.64C442.307 74.64 443.641 74.7733 444.761 75.04C445.934 75.3067 447.187 75.6533 448.521 76.08V82.24C447.454 81.12 446.281 80.1867 445.001 79.44C443.774 78.6933 442.227 78.32 440.361 78.32C439.241 78.32 438.014 78.56 436.681 79.04C435.401 79.4667 434.147 80.24 432.921 81.36C431.694 82.48 430.681 84.0533 429.881 86.08C429.134 88.1067 428.761 90.72 428.761 93.92C428.761 97.3333 429.267 100.053 430.281 102.08C431.294 104.053 432.494 105.493 433.881 106.4C435.267 107.253 436.547 107.68 437.721 107.68C439.321 107.68 440.841 107.2 442.281 106.24C443.774 105.227 445.001 103.6 445.961 101.36C446.921 99.12 447.401 96.1333 447.401 92.4L449.721 100.88C449.027 102.587 448.414 103.893 447.881 104.8C447.401 105.707 447.027 106.373 446.761 106.8C446.281 107.6 445.507 108.453 444.441 109.36C443.427 110.267 442.174 111.067 440.681 111.76C439.241 112.4 437.614 112.72 435.801 112.72C432.707 112.72 430.041 112.107 427.801 110.88C425.561 109.6 423.827 107.653 422.601 105.04C421.427 102.427 420.841 99.0667 420.841 94.96C420.841 91.2267 421.667 87.84 423.321 84.8C424.974 81.7067 427.294 79.2533 430.281 77.44C433.267 75.5733 436.761 74.64 440.761 74.64ZM454.601 101.12C454.601 102.347 454.707 103.387 454.921 104.24C455.134 105.04 455.587 105.627 456.281 106C457.027 106.373 458.121 106.56 459.561 106.56C459.561 107.093 459.534 107.707 459.481 108.4C459.427 109.04 459.294 109.653 459.081 110.24C457.747 110.293 456.201 110.56 454.441 111.04C452.681 111.467 451.187 112.027 449.961 112.72C449.427 112.453 448.947 112.08 448.521 111.6C448.147 111.067 447.961 109.893 447.961 108.08C447.961 107.013 448.041 106.08 448.201 105.28C448.414 104.427 448.707 103.04 449.081 101.12H454.601ZM454.601 66V101.84H447.401V66H454.601ZM452.841 54.64C453.321 54.8 453.721 55.12 454.041 55.6C454.414 56.08 454.601 56.8267 454.601 57.84V68.96H447.401V66C447.401 64.72 447.267 63.68 447.001 62.88C446.787 62.0267 446.254 61.3867 445.401 60.96C444.547 60.5333 443.214 60.32 441.401 60.32C441.401 59.7333 441.454 59.2 441.561 58.72C441.667 58.24 441.854 57.7867 442.121 57.36C442.921 57.36 444.041 57.2267 445.481 56.96C446.921 56.6933 448.334 56.3467 449.721 55.92C451.161 55.4933 452.201 55.0667 452.841 54.64ZM482.957 112.72C479.17 112.72 476.024 111.867 473.517 110.16C471.01 108.453 469.117 106.16 467.837 103.28C466.61 100.347 465.997 97.1467 465.997 93.68C465.997 90.2667 466.664 87.12 467.997 84.24C469.33 81.36 471.224 79.04 473.677 77.28C476.184 75.52 479.144 74.64 482.557 74.64C486.024 74.64 488.797 75.3867 490.877 76.88C493.01 78.3733 494.584 80.3733 495.597 82.88C496.664 85.3867 497.304 88.16 497.517 91.2C497.304 92.2667 496.904 93.1733 496.317 93.92C495.41 93.92 494.05 93.92 492.237 93.92C490.424 93.92 488.37 93.9467 486.077 94C483.784 94 481.437 94.0533 479.037 94.16C476.637 94.2133 474.37 94.2933 472.237 94.4V90.32H489.197C489.197 86.8 488.557 83.9467 487.277 81.76C485.997 79.5733 484.184 78.48 481.837 78.48C480.557 78.48 479.304 78.88 478.077 79.68C476.85 80.4267 475.837 81.7867 475.037 83.76C474.237 85.68 473.837 88.4267 473.837 92C473.837 94.6133 474.157 97.1733 474.797 99.68C475.49 102.133 476.664 104.187 478.317 105.84C480.024 107.44 482.424 108.24 485.517 108.24C487.277 108.24 489.01 107.84 490.717 107.04C492.424 106.24 493.944 105.093 495.277 103.6C495.704 103.813 496.104 104.187 496.477 104.72C496.904 105.2 497.144 105.653 497.197 106.08C495.384 108.48 493.277 110.187 490.877 111.2C488.53 112.213 485.89 112.72 482.957 112.72ZM529.408 88.48C529.408 89.3333 529.328 90.24 529.168 91.2C529.008 92.1067 528.741 92.9333 528.368 93.68C526.928 93.68 525.194 93.7067 523.168 93.76C521.141 93.76 519.034 93.7867 516.848 93.84C514.661 93.84 512.581 93.8667 510.608 93.92C508.634 93.92 506.928 93.9467 505.488 94C505.488 93.0933 505.594 92.1333 505.808 91.12C506.074 90.0533 506.394 89.1733 506.768 88.48H529.408ZM564.966 112.72C559.686 112.72 555.072 111.493 551.126 109.04C547.179 106.587 544.086 103.253 541.846 99.04C539.659 94.8267 538.566 90.08 538.566 84.8C538.566 80.6933 539.232 76.96 540.566 73.6C541.952 70.24 543.846 67.3333 546.246 64.88C548.646 62.4267 551.446 60.5333 554.646 59.2C557.846 57.8667 561.286 57.2 564.966 57.2C570.086 57.2 574.619 58.3733 578.566 60.72C582.566 63.0133 585.712 66.24 588.006 70.4C590.299 74.5067 591.446 79.3067 591.446 84.8C591.446 88.7467 590.806 92.4267 589.526 95.84C588.246 99.2 586.406 102.16 584.006 104.72C581.659 107.227 578.859 109.2 575.606 110.64C572.406 112.027 568.859 112.72 564.966 112.72ZM566.566 108.8C570.032 108.8 572.992 107.84 575.446 105.92C577.952 103.947 579.872 101.307 581.206 98C582.539 94.64 583.206 90.9333 583.206 86.88C583.206 82.08 582.326 77.7333 580.566 73.84C578.859 69.8933 576.512 66.7733 573.526 64.48C570.539 62.1867 567.126 61.04 563.286 61.04C560.139 61.04 557.312 61.9467 554.806 63.76C552.352 65.52 550.406 68.0267 548.966 71.28C547.526 74.5333 546.806 78.32 546.806 82.64C546.806 86 547.232 89.2533 548.086 92.4C548.939 95.5467 550.192 98.3467 551.846 100.8C553.552 103.253 555.632 105.2 558.086 106.64C560.539 108.08 563.366 108.8 566.566 108.8ZM603.161 94.88V86C603.161 84.72 603.028 83.68 602.761 82.88C602.495 82.08 601.935 81.4667 601.081 81.04C600.228 80.6133 598.921 80.3733 597.161 80.32C597.161 79.7333 597.215 79.2 597.321 78.72C597.428 78.24 597.615 77.7867 597.881 77.36C599.535 77.2533 601.428 76.9333 603.561 76.4C605.695 75.8667 607.375 75.28 608.601 74.64C609.081 74.8 609.481 75.1467 609.801 75.68C610.175 76.16 610.361 76.9867 610.361 78.16L603.161 94.88ZM634.041 101.84C634.041 104.613 634.415 106.48 635.161 107.44C635.961 108.347 637.161 108.8 638.761 108.8C638.921 109.28 639.028 109.787 639.081 110.32C639.135 110.853 639.161 111.493 639.161 112.24C637.988 112.133 636.655 112.053 635.161 112C633.668 112 632.095 112 630.441 112C629.375 112 628.255 112 627.081 112C625.908 112.053 624.788 112.08 623.721 112.08C622.708 112.133 621.775 112.187 620.921 112.24C620.921 111.493 620.948 110.853 621.001 110.32C621.055 109.733 621.161 109.227 621.321 108.8C623.241 108.8 624.628 108.32 625.481 107.36C626.388 106.347 626.841 104.507 626.841 101.84V89.68C626.841 85.8933 626.148 83.3333 624.761 82C623.375 80.6133 621.588 79.92 619.401 79.92C618.015 79.92 616.628 80.3733 615.241 81.28C613.855 82.1333 612.681 83.5467 611.721 85.52C610.815 87.44 610.361 90.0267 610.361 93.28V101.84C610.361 104.507 610.761 106.347 611.561 107.36C612.361 108.32 613.801 108.8 615.881 108.8C616.041 109.28 616.148 109.787 616.201 110.32C616.255 110.853 616.281 111.493 616.281 112.24C615.535 112.187 614.628 112.133 613.561 112.08C612.495 112.08 611.375 112.053 610.201 112C609.028 112 607.881 112 606.761 112C605.695 112 604.575 112 603.401 112C602.228 112.053 601.108 112.08 600.041 112.08C598.975 112.133 598.041 112.187 597.241 112.24C597.241 111.493 597.268 110.853 597.321 110.32C597.375 109.733 597.481 109.227 597.641 108.8C599.721 108.8 601.161 108.32 601.961 107.36C602.761 106.347 603.161 104.507 603.161 101.84V86L610.361 78.16C610.361 78.8 610.335 79.52 610.281 80.32C610.228 81.12 610.068 81.9733 609.801 82.88C609.961 82.6133 610.121 82.32 610.281 82C610.441 81.6267 610.681 81.2267 611.001 80.8C611.908 79.5733 613.348 78.32 615.321 77.04C617.348 75.7067 619.775 75.04 622.601 75.04C624.628 75.04 626.495 75.4667 628.201 76.32C629.961 77.12 631.375 78.48 632.441 80.4C633.508 82.2667 634.041 84.8267 634.041 88.08V101.84ZM644.896 112.24C644.896 111.707 644.922 111.147 644.976 110.56C645.029 109.92 645.136 109.333 645.296 108.8C647.429 108.8 648.869 108.32 649.616 107.36C650.416 106.347 650.816 104.507 650.816 101.84V66C650.816 64.72 650.682 63.68 650.416 62.88C650.202 62.0267 649.669 61.3867 648.816 60.96C647.962 60.5333 646.629 60.32 644.816 60.32C644.816 59.7333 644.869 59.2 644.976 58.72C645.082 58.24 645.269 57.7867 645.536 57.36C646.336 57.36 647.456 57.2267 648.896 56.96C650.389 56.6933 651.829 56.3467 653.216 55.92C654.602 55.4933 655.616 55.0667 656.256 54.64C656.736 54.8 657.136 55.12 657.456 55.6C657.829 56.08 658.016 56.8267 658.016 57.84V101.84C658.016 104.507 658.362 106.347 659.056 107.36C659.802 108.32 661.029 108.8 662.736 108.8C662.896 109.333 663.002 109.947 663.056 110.64C663.109 111.333 663.136 111.867 663.136 112.24C662.229 112.187 661.269 112.133 660.256 112.08C659.242 112.08 658.202 112.053 657.136 112C656.122 112 655.109 112 654.096 112C653.082 112 652.016 112 650.896 112C649.829 112.053 648.789 112.08 647.776 112.08C646.762 112.133 645.802 112.187 644.896 112.24ZM696.242 88.16C697.629 84.7467 697.949 82.4267 697.202 81.2C696.509 79.92 694.989 79.0667 692.642 78.64C692.429 78.0533 692.269 77.4933 692.162 76.96C692.109 76.3733 692.082 75.7867 692.082 75.2C693.309 75.2533 694.562 75.3067 695.842 75.36C697.122 75.36 698.509 75.36 700.002 75.36C701.495 75.36 702.909 75.36 704.242 75.36C705.575 75.3067 706.829 75.2533 708.002 75.2C708.002 75.7333 707.975 76.2933 707.922 76.88C707.922 77.4667 707.789 78.0533 707.522 78.64C706.562 78.8533 705.735 79.2267 705.042 79.76C704.402 80.2933 703.789 81.12 703.202 82.24C702.615 83.36 701.895 84.9333 701.042 86.96L689.282 114.96C687.789 118.587 686.429 121.52 685.202 123.76C684.029 126 682.909 127.707 681.842 128.88C680.829 130.053 679.789 130.853 678.722 131.28C677.709 131.707 676.589 131.92 675.362 131.92C673.762 131.92 672.482 131.707 671.522 131.28C670.615 130.853 669.895 130.453 669.362 130.08C669.149 129.28 669.069 128.267 669.122 127.04C669.175 125.867 669.282 124.933 669.442 124.24C670.349 124.4 671.229 124.507 672.082 124.56C672.935 124.667 673.762 124.72 674.562 124.72C676.109 124.72 677.575 124.347 678.962 123.6C680.402 122.853 681.629 121.653 682.642 120C683.389 118.88 684.509 116.667 686.002 113.36C687.495 110.107 689.069 106.347 690.722 102.08L696.242 88.16ZM686.882 113.68C685.602 110.853 684.242 107.893 682.802 104.8C681.415 101.653 680.082 98.64 678.802 95.76C677.522 92.88 676.402 90.4533 675.442 88.48C674.215 85.8133 673.175 83.8133 672.322 82.48C671.522 81.1467 670.749 80.2133 670.002 79.68C669.309 79.1467 668.509 78.8 667.602 78.64C667.442 78.16 667.309 77.6267 667.202 77.04C667.149 76.4533 667.122 75.84 667.122 75.2C668.669 75.2533 670.215 75.3067 671.762 75.36C673.309 75.36 674.775 75.36 676.162 75.36C677.549 75.36 679.255 75.36 681.282 75.36C683.309 75.3067 685.149 75.2533 686.802 75.2C686.802 75.8933 686.749 76.5333 686.642 77.12C686.589 77.6533 686.455 78.16 686.242 78.64C683.362 79.12 681.709 79.9733 681.282 81.2C680.855 82.3733 681.362 84.4533 682.802 87.44C683.549 88.9867 684.402 90.8533 685.362 93.04C686.322 95.1733 687.255 97.3333 688.162 99.52C689.069 101.653 689.842 103.547 690.482 105.2L686.882 113.68ZM751.437 57.44L770.477 101.12C771.384 103.093 772.13 104.613 772.717 105.68C773.304 106.747 773.89 107.493 774.477 107.92C775.117 108.347 775.837 108.64 776.637 108.8C776.85 109.493 776.984 110.08 777.037 110.56C777.09 111.04 777.117 111.6 777.117 112.24C776.584 112.187 775.757 112.133 774.637 112.08C773.517 112.08 772.344 112.053 771.117 112C769.89 112 768.85 112 767.997 112C767.357 112 766.61 112 765.757 112C764.904 112.053 764.024 112.08 763.117 112.08C762.21 112.133 761.384 112.16 760.637 112.16C759.944 112.213 759.384 112.24 758.957 112.24C758.957 111.6 758.984 110.987 759.037 110.4C759.144 109.813 759.304 109.28 759.517 108.8C761.704 108.533 762.984 108.053 763.357 107.36C763.784 106.613 763.464 105.013 762.397 102.56L751.277 76.56C750.584 74.9067 749.97 73.44 749.437 72.16C748.904 70.88 748.264 69.2533 747.517 67.28H747.917C747.277 69.3067 746.69 71.04 746.157 72.48C745.677 73.8667 745.197 75.2 744.717 76.48L735.597 100.24C734.424 103.387 734.05 105.573 734.477 106.8C734.957 107.973 736.29 108.64 738.477 108.8C738.69 109.28 738.824 109.813 738.877 110.4C738.984 110.987 739.037 111.6 739.037 112.24C738.45 112.187 737.73 112.133 736.877 112.08C736.024 112.08 735.117 112.053 734.157 112C733.25 112 732.344 112 731.437 112C730.104 112 728.85 112.027 727.677 112.08C726.504 112.133 725.544 112.187 724.797 112.24C724.797 111.707 724.824 111.147 724.877 110.56C724.984 109.92 725.144 109.36 725.357 108.88C726.317 108.667 727.117 108.293 727.757 107.76C728.397 107.227 729.01 106.373 729.597 105.2C730.237 103.973 730.957 102.32 731.757 100.24L748.317 57.76C748.85 57.6533 749.33 57.5733 749.757 57.52C750.237 57.4667 750.797 57.44 751.437 57.44ZM758.717 90.8L759.437 94.4C755.864 94.4 752.024 94.4267 747.917 94.48C743.864 94.5333 740.184 94.6133 736.877 94.72L738.157 90.8H758.717ZM796.325 131.92C793.072 131.92 790.405 131.493 788.325 130.64C786.298 129.84 784.805 128.64 783.845 127.04C782.885 125.44 782.405 123.467 782.405 121.12C782.405 119.093 782.938 117.333 784.005 115.84C785.125 114.347 786.672 113.173 788.645 112.32L792.645 112.64C791.365 113.6 790.485 114.613 790.005 115.68C789.525 116.747 789.285 118 789.285 119.44C789.285 122.16 789.952 124.213 791.285 125.6C792.672 126.987 794.992 127.68 798.245 127.68C801.765 127.68 804.512 126.8 806.485 125.04C808.512 123.28 809.525 121.253 809.525 118.96C809.525 117.573 809.178 116.48 808.485 115.68C807.845 114.88 806.565 114.293 804.645 113.92C802.778 113.547 800.005 113.36 796.325 113.36C793.925 113.36 791.952 113.227 790.405 112.96C788.912 112.747 787.712 112.373 786.805 111.84C785.952 111.253 785.338 110.533 784.965 109.68C784.645 108.827 784.485 107.787 784.485 106.56C784.485 104.8 784.992 103.093 786.005 101.44C787.072 99.7333 788.432 98.2133 790.085 96.88L793.045 98.96C791.978 99.8667 791.205 100.72 790.725 101.52C790.298 102.32 790.085 103.013 790.085 103.6C790.085 104.56 790.325 105.28 790.805 105.76C791.338 106.24 792.432 106.56 794.085 106.72C795.738 106.88 798.272 106.96 801.685 106.96C805.258 106.96 808.085 107.253 810.165 107.84C812.298 108.427 813.818 109.36 814.725 110.64C815.685 111.92 816.165 113.653 816.165 115.84C816.165 117.653 815.658 119.493 814.645 121.36C813.685 123.28 812.325 125.013 810.565 126.56C808.805 128.16 806.698 129.44 804.245 130.4C801.845 131.413 799.205 131.92 796.325 131.92ZM798.245 100.88C795.738 100.88 793.365 100.4 791.125 99.44C788.885 98.48 787.072 97.04 785.685 95.12C784.352 93.2 783.685 90.8 783.685 87.92C783.685 85.4667 784.218 83.2533 785.285 81.28C786.352 79.2533 787.952 77.6533 790.085 76.48C792.272 75.2533 794.938 74.64 798.085 74.64C800.752 74.64 802.992 75.0933 804.805 76C806.672 76.8533 808.192 77.9733 809.365 79.36C810.538 80.6933 811.392 82.1067 811.925 83.6C812.458 85.04 812.725 86.32 812.725 87.44C812.725 89.8933 812.165 92.16 811.045 94.24C809.978 96.2667 808.352 97.8933 806.165 99.12C804.032 100.293 801.392 100.88 798.245 100.88ZM799.205 97.2C800.965 97.2 802.405 96.48 803.525 95.04C804.645 93.5467 805.205 91.4133 805.205 88.64C805.205 85.8133 804.512 83.3867 803.125 81.36C801.738 79.28 799.792 78.24 797.285 78.24C795.152 78.24 793.578 79.1467 792.565 80.96C791.552 82.72 791.045 84.6933 791.045 86.88C791.045 90.1867 791.765 92.7467 793.205 94.56C794.645 96.32 796.645 97.2 799.205 97.2ZM816.805 80.32C815.952 80.1067 814.912 79.8933 813.685 79.68C812.512 79.4667 811.338 79.28 810.165 79.12C809.045 78.96 808.085 78.8533 807.285 78.8L801.685 75.36H816.245C816.458 76.0533 816.592 76.8533 816.645 77.76C816.752 78.6133 816.805 79.4667 816.805 80.32ZM840.144 112.72C836.358 112.72 833.211 111.867 830.704 110.16C828.198 108.453 826.304 106.16 825.024 103.28C823.798 100.347 823.184 97.1467 823.184 93.68C823.184 90.2667 823.851 87.12 825.184 84.24C826.518 81.36 828.411 79.04 830.864 77.28C833.371 75.52 836.331 74.64 839.744 74.64C843.211 74.64 845.984 75.3867 848.064 76.88C850.198 78.3733 851.771 80.3733 852.784 82.88C853.851 85.3867 854.491 88.16 854.704 91.2C854.491 92.2667 854.091 93.1733 853.504 93.92C852.598 93.92 851.238 93.92 849.424 93.92C847.611 93.92 845.558 93.9467 843.264 94C840.971 94 838.624 94.0533 836.224 94.16C833.824 94.2133 831.558 94.2933 829.424 94.4V90.32H846.384C846.384 86.8 845.744 83.9467 844.464 81.76C843.184 79.5733 841.371 78.48 839.024 78.48C837.744 78.48 836.491 78.88 835.264 79.68C834.038 80.4267 833.024 81.7867 832.224 83.76C831.424 85.68 831.024 88.4267 831.024 92C831.024 94.6133 831.344 97.1733 831.984 99.68C832.678 102.133 833.851 104.187 835.504 105.84C837.211 107.44 839.611 108.24 842.704 108.24C844.464 108.24 846.198 107.84 847.904 107.04C849.611 106.24 851.131 105.093 852.464 103.6C852.891 103.813 853.291 104.187 853.664 104.72C854.091 105.2 854.331 105.653 854.384 106.08C852.571 108.48 850.464 110.187 848.064 111.2C845.718 112.213 843.078 112.72 840.144 112.72ZM866.755 94.88V86C866.755 84.72 866.622 83.68 866.355 82.88C866.088 82.08 865.528 81.4667 864.675 81.04C863.822 80.6133 862.515 80.3733 860.755 80.32C860.755 79.7333 860.808 79.2 860.915 78.72C861.022 78.24 861.208 77.7867 861.475 77.36C863.128 77.2533 865.022 76.9333 867.155 76.4C869.288 75.8667 870.968 75.28 872.195 74.64C872.675 74.8 873.075 75.1467 873.395 75.68C873.768 76.16 873.955 76.9867 873.955 78.16L866.755 94.88ZM897.635 101.84C897.635 104.613 898.008 106.48 898.755 107.44C899.555 108.347 900.755 108.8 902.355 108.8C902.515 109.28 902.622 109.787 902.675 110.32C902.728 110.853 902.755 111.493 902.755 112.24C901.582 112.133 900.248 112.053 898.755 112C897.262 112 895.688 112 894.035 112C892.968 112 891.848 112 890.675 112C889.502 112.053 888.382 112.08 887.315 112.08C886.302 112.133 885.368 112.187 884.515 112.24C884.515 111.493 884.542 110.853 884.595 110.32C884.648 109.733 884.755 109.227 884.915 108.8C886.835 108.8 888.222 108.32 889.075 107.36C889.982 106.347 890.435 104.507 890.435 101.84V89.68C890.435 85.8933 889.742 83.3333 888.355 82C886.968 80.6133 885.182 79.92 882.995 79.92C881.608 79.92 880.222 80.3733 878.835 81.28C877.448 82.1333 876.275 83.5467 875.315 85.52C874.408 87.44 873.955 90.0267 873.955 93.28V101.84C873.955 104.507 874.355 106.347 875.155 107.36C875.955 108.32 877.395 108.8 879.475 108.8C879.635 109.28 879.742 109.787 879.795 110.32C879.848 110.853 879.875 111.493 879.875 112.24C879.128 112.187 878.222 112.133 877.155 112.08C876.088 112.08 874.968 112.053 873.795 112C872.622 112 871.475 112 870.355 112C869.288 112 868.168 112 866.995 112C865.822 112.053 864.702 112.08 863.635 112.08C862.568 112.133 861.635 112.187 860.835 112.24C860.835 111.493 860.862 110.853 860.915 110.32C860.968 109.733 861.075 109.227 861.235 108.8C863.315 108.8 864.755 108.32 865.555 107.36C866.355 106.347 866.755 104.507 866.755 101.84V86L873.955 78.16C873.955 78.8 873.928 79.52 873.875 80.32C873.822 81.12 873.662 81.9733 873.395 82.88C873.555 82.6133 873.715 82.32 873.875 82C874.035 81.6267 874.275 81.2267 874.595 80.8C875.502 79.5733 876.942 78.32 878.915 77.04C880.942 75.7067 883.368 75.04 886.195 75.04C888.222 75.04 890.088 75.4667 891.795 76.32C893.555 77.12 894.968 78.48 896.035 80.4C897.102 82.2667 897.635 84.8267 897.635 88.08V101.84ZM922.249 112.72C919.103 112.72 916.756 111.92 915.209 110.32C913.716 108.667 912.969 106.027 912.969 102.4V80.72C912.169 80.4533 911.343 80.24 910.489 80.08C909.636 79.8667 908.543 79.7333 907.209 79.68C907.209 78.9867 907.263 78.4 907.369 77.92C907.476 77.3867 907.663 76.8 907.929 76.16H912.969V65.6C914.036 65.3333 915.076 64.9067 916.089 64.32C917.156 63.7333 918.089 63.0933 918.889 62.4C919.423 62.6133 919.769 62.9333 919.929 63.36C920.089 63.7867 920.169 64.8533 920.169 66.56V76.16H930.569C930.569 76.6933 930.516 77.28 930.409 77.92C930.303 78.5067 930.116 79.0933 929.849 79.68C927.929 79.7333 926.169 79.8667 924.569 80.08C922.969 80.24 921.503 80.4533 920.169 80.72V100.72C920.169 102.48 920.356 103.947 920.729 105.12C921.103 106.24 921.636 107.067 922.329 107.6C923.023 108.133 923.849 108.4 924.809 108.4C925.929 108.4 926.889 108.24 927.689 107.92C928.543 107.6 929.343 107.12 930.089 106.48C930.783 107.28 931.183 108.16 931.289 109.12C930.436 110.133 929.129 110.987 927.369 111.68C925.663 112.373 923.956 112.72 922.249 112.72Z" fill="black"/>
<path d="M1065 211C1065 219.837 1072.16 227 1081 227C1089.84 227 1097 219.837 1097 211C1097 202.163 1089.84 195 1081 195C1072.16 195 1065 202.163 1065 211ZM905 211L905 214L1081 214L1081 211L1081 208L905 208L905 211Z" fill="black"/>
<path d="M778.44 194.248C780.317 194.248 782.003 194.419 783.496 194.76C784.989 195.101 786.227 195.485 787.208 195.912C788.189 196.296 788.829 196.659 789.128 197C789.299 197.128 789.384 197.256 789.384 197.384C789.427 197.469 789.448 197.576 789.448 197.704C789.448 198.472 789.448 199.24 789.448 200.008C789.448 200.776 789.448 201.565 789.448 202.376H788.488C786.995 201.565 785.48 200.925 783.944 200.456C782.451 199.987 780.701 199.752 778.696 199.752C776.392 199.752 774.472 200.115 772.936 200.84C771.443 201.523 770.312 202.611 769.544 204.104C768.819 205.597 768.456 207.475 768.456 209.736V214.536C768.456 216.115 768.669 217.501 769.096 218.696C769.523 219.891 770.141 220.893 770.952 221.704C771.763 222.515 772.787 223.133 774.024 223.56C775.261 223.987 776.776 224.2 778.568 224.2C779.933 224.2 781.171 224.093 782.28 223.88C783.389 223.667 784.435 223.368 785.416 222.984C786.44 222.6 787.464 222.152 788.488 221.64H789.448C789.448 222.408 789.448 223.197 789.448 224.008C789.448 224.776 789.448 225.544 789.448 226.312C789.448 226.397 789.427 226.483 789.384 226.568C789.384 226.653 789.341 226.739 789.256 226.824C788.829 227.293 788.083 227.741 787.016 228.168C785.992 228.595 784.712 228.957 783.176 229.256C781.64 229.555 779.976 229.704 778.184 229.704C775.752 229.704 773.555 229.363 771.592 228.68C769.672 227.955 768.029 226.952 766.664 225.672C765.299 224.392 764.253 222.856 763.528 221.064C762.803 219.229 762.44 217.203 762.44 214.984V209.16C762.44 206.003 763.101 203.315 764.424 201.096C765.789 198.877 767.667 197.192 770.056 196.04C772.445 194.845 775.24 194.248 778.44 194.248ZM814.575 194.248C816.751 194.248 818.735 194.611 820.527 195.336C822.319 196.019 823.855 196.979 825.135 198.216C826.458 199.453 827.46 200.925 828.143 202.632C828.826 204.339 829.167 206.216 829.167 208.264V215.368C829.167 218.184 828.527 220.68 827.247 222.856C826.01 224.989 824.282 226.675 822.063 227.912C819.844 229.107 817.348 229.704 814.575 229.704C812.399 229.704 810.415 229.363 808.623 228.68C806.831 227.997 805.274 227.037 803.951 225.8C802.671 224.52 801.69 223.027 801.007 221.32C800.324 219.613 799.983 217.736 799.983 215.688V208.584C799.983 205.725 800.602 203.229 801.839 201.096C803.119 198.963 804.868 197.299 807.087 196.104C809.306 194.867 811.802 194.248 814.575 194.248ZM814.895 199.624C812.932 199.624 811.268 200.029 809.903 200.84C808.58 201.651 807.556 202.739 806.831 204.104C806.148 205.469 805.807 207.027 805.807 208.776V215.24C805.807 216.648 806.02 217.928 806.447 219.08C806.916 220.189 807.535 221.149 808.303 221.96C809.028 222.685 809.882 223.261 810.863 223.688C811.887 224.115 813.018 224.328 814.255 224.328C816.218 224.328 817.86 223.923 819.183 223.112C820.548 222.259 821.572 221.149 822.255 219.784C822.98 218.419 823.343 216.883 823.343 215.176V208.712C823.343 207.219 823.13 205.896 822.703 204.744C822.319 203.592 821.722 202.632 820.911 201.864C820.228 201.139 819.375 200.584 818.351 200.2C817.327 199.816 816.175 199.624 814.895 199.624ZM849.302 194.248C850.838 194.248 852.203 194.483 853.398 194.952C854.593 195.379 855.681 196.019 856.662 196.872C857.686 197.725 858.582 198.771 859.35 200.008H861.27V206.984C859.734 204.509 858.091 202.717 856.342 201.608C854.593 200.456 852.758 199.88 850.838 199.88C849.43 199.88 848.193 200.2 847.126 200.84C846.102 201.437 845.291 202.355 844.694 203.592C844.139 204.787 843.862 206.28 843.862 208.072V216.2C843.862 217.565 844.033 218.76 844.374 219.784C844.758 220.765 845.249 221.576 845.846 222.216C846.443 222.813 847.169 223.261 848.022 223.56C848.875 223.859 849.814 224.008 850.838 224.008C852.075 224.008 853.291 223.795 854.486 223.368C855.681 222.899 856.854 222.152 858.006 221.128C859.158 220.104 860.246 218.76 861.27 217.096V223.816H859.35C858.582 225.053 857.686 226.099 856.662 226.952C855.638 227.805 854.486 228.467 853.206 228.936C851.969 229.405 850.625 229.64 849.174 229.64C847.553 229.64 846.038 229.363 844.63 228.808C843.265 228.211 842.091 227.379 841.11 226.312C840.129 225.245 839.361 223.944 838.806 222.408C838.294 220.872 838.038 219.123 838.038 217.16V207.112C838.038 205.107 838.294 203.315 838.806 201.736C839.361 200.157 840.129 198.813 841.11 197.704C842.134 196.595 843.329 195.741 844.694 195.144C846.102 194.547 847.638 194.248 849.302 194.248ZM865.494 181C865.665 181 865.793 181.043 865.878 181.128C865.963 181.171 866.027 181.235 866.07 181.32C866.155 181.405 866.198 181.533 866.198 181.704C866.198 184.989 866.198 188.339 866.198 191.752C866.198 195.165 866.198 198.557 866.198 201.928C866.198 205.299 866.198 208.627 866.198 211.912C866.198 215.155 866.198 218.291 866.198 221.32C866.198 222.771 866.198 224.157 866.198 225.48C866.198 226.76 866.198 227.933 866.198 229C865.771 229 865.323 229 864.854 229C864.427 229 864.001 229 863.574 229C863.147 229 862.721 229 862.294 229C861.867 229 861.441 229 861.014 229C860.886 229 860.758 228.979 860.63 228.936C860.545 228.851 860.459 228.765 860.374 228.68C860.331 228.595 860.31 228.467 860.31 228.296C860.31 224.883 860.31 221.469 860.31 218.056C860.31 214.643 860.31 211.251 860.31 207.88C860.31 204.467 860.31 201.053 860.31 197.64C860.31 194.227 860.31 190.813 860.31 187.4C860.31 186.376 860.31 185.331 860.31 184.264C860.31 183.197 860.31 182.109 860.31 181C860.737 181 861.163 181 861.59 181C862.017 181 862.443 181 862.87 181C863.297 181 863.723 181 864.15 181C864.619 181 865.067 181 865.494 181ZM891.517 194.248C894.034 194.248 896.338 194.781 898.429 195.848C900.52 196.872 902.184 198.451 903.421 200.584C904.701 202.675 905.341 205.363 905.341 208.648V213.32C905.341 213.448 905.298 213.576 905.213 213.704C905.17 213.789 905.106 213.875 905.021 213.96C904.936 214.003 904.808 214.024 904.637 214.024H888.061C887.336 214.024 886.61 214.024 885.885 214.024C885.16 214.024 884.456 214.024 883.773 214.024H881.853L881.021 209.864H899.581C899.581 209.651 899.581 209.437 899.581 209.224C899.581 209.011 899.581 208.797 899.581 208.584C899.581 206.92 899.389 205.491 899.005 204.296C898.664 203.059 898.109 202.056 897.341 201.288C896.658 200.648 895.826 200.179 894.845 199.88C893.864 199.539 892.754 199.368 891.517 199.368C888.744 199.368 886.61 200.115 885.117 201.608C883.624 203.059 882.877 205.448 882.877 208.776V215.496C882.877 216.435 882.962 217.309 883.133 218.12C883.304 218.888 883.538 219.592 883.837 220.232C884.178 220.872 884.584 221.448 885.053 221.96C885.906 222.813 887.016 223.453 888.381 223.88C889.789 224.264 891.41 224.456 893.245 224.456C894.781 224.456 896.146 224.371 897.341 224.2C898.536 224.029 899.645 223.752 900.669 223.368C901.736 222.984 902.802 222.493 903.869 221.896H904.829C904.829 222.664 904.829 223.432 904.829 224.2C904.829 224.968 904.829 225.715 904.829 226.44C904.829 226.525 904.808 226.611 904.765 226.696C904.722 226.781 904.658 226.867 904.573 226.952C904.061 227.464 903.229 227.933 902.077 228.36C900.925 228.787 899.581 229.107 898.045 229.32C896.509 229.576 894.888 229.704 893.181 229.704C890.578 229.704 888.253 229.405 886.205 228.808C884.157 228.168 882.45 227.251 881.085 226.056C879.762 224.819 878.76 223.325 878.077 221.576C877.394 219.827 877.053 217.8 877.053 215.496V208.84C877.053 206.365 877.416 204.211 878.141 202.376C878.909 200.541 879.954 199.027 881.277 197.832C882.6 196.637 884.136 195.741 885.885 195.144C887.634 194.547 889.512 194.248 891.517 194.248Z" fill="black"/>
<path d="M112.793 274.027C112.312 271.038 112.473 267.995 113.273 264.898C114.021 261.855 115.035 258.812 116.316 255.77C117.544 252.727 118.799 249.684 120.08 246.641C121.361 243.651 122.242 240.715 122.723 237.832C122.723 237.725 122.936 237.405 123.363 236.871C123.844 236.337 124.351 235.777 124.885 235.189C125.472 234.549 125.979 233.962 126.406 233.428C126.887 232.84 127.154 232.493 127.207 232.387C128.061 230.518 128.915 228.81 129.77 227.262C130.677 225.66 131.371 224.112 131.852 222.617C132.332 221.122 132.546 219.654 132.492 218.213C132.439 216.718 131.905 215.117 130.891 213.408C130.784 213.301 130.73 213.141 130.73 212.928C130.73 212.714 130.784 212.581 130.891 212.527C132.439 210.552 134.227 208.897 136.256 207.562C138.285 206.228 140.447 205.16 142.742 204.359C145.038 203.559 147.413 203.025 149.869 202.758C152.325 202.491 154.754 202.438 157.156 202.598C159.185 204.306 160.466 206.255 161 208.443C161.587 210.579 161.614 212.821 161.08 215.17C160.6 217.465 159.665 219.788 158.277 222.137C156.943 224.486 155.395 226.674 153.633 228.703C151.871 230.732 150.003 232.547 148.027 234.148C146.105 235.75 144.29 236.978 142.582 237.832C141.034 238.579 139.886 239.087 139.139 239.354C138.445 239.567 137.751 239.701 137.057 239.754C136.363 239.807 135.508 239.861 134.494 239.914C133.533 239.967 132.038 240.181 130.01 240.555C129.102 240.715 128.328 241.142 127.688 241.836C127.1 242.477 126.593 243.224 126.166 244.078C125.792 244.879 125.472 245.706 125.205 246.561C124.992 247.468 124.778 248.189 124.564 248.723C123.604 251.072 122.723 253.234 121.922 255.209C121.174 257.238 120.454 259.213 119.76 261.135C119.012 263.11 118.292 265.139 117.598 267.221C116.904 269.303 116.183 271.572 115.436 274.027C115.329 274.294 115.142 274.508 114.875 274.668C114.608 274.882 114.341 274.988 114.074 274.988C113.754 275.042 113.487 274.988 113.273 274.828C113.007 274.721 112.846 274.454 112.793 274.027ZM130.891 236.951C133.346 237.432 135.722 237.298 138.018 236.551C140.367 235.803 142.555 234.656 144.584 233.107C146.613 231.506 148.428 229.611 150.029 227.422C151.684 225.18 153.072 222.831 154.193 220.375C155.314 217.919 156.142 215.464 156.676 213.008C157.21 210.499 157.37 208.203 157.156 206.121C156.409 205.48 155.501 205.16 154.434 205.16C153.419 205.107 152.512 205.133 151.711 205.24C148.828 205.614 146.559 206.361 144.904 207.482C143.249 208.55 141.888 209.911 140.82 211.566C139.806 213.221 138.925 215.143 138.178 217.332C137.43 219.467 136.523 221.79 135.455 224.299C135.242 224.673 134.921 225.34 134.494 226.301C134.067 227.208 133.613 228.196 133.133 229.264C132.652 230.278 132.199 231.266 131.771 232.227C131.344 233.188 131.051 233.855 130.891 234.229V236.951ZM165.725 245.119C165.618 245.066 165.618 244.452 165.725 243.277C165.885 242.049 166.098 240.528 166.365 238.713C166.632 236.898 166.979 234.896 167.406 232.707C167.833 230.518 168.287 228.436 168.768 226.461C169.248 224.432 169.755 222.671 170.289 221.176C170.876 219.628 171.437 218.56 171.971 217.973C172.344 217.599 172.718 217.599 173.092 217.973C173.465 218.293 173.839 218.72 174.213 219.254C174.587 219.734 174.96 220.188 175.334 220.615C175.708 220.989 176.108 221.016 176.535 220.695C178.03 218.613 179.658 216.638 181.42 214.77C183.235 212.848 185.237 211.193 187.426 209.805C187.639 209.645 188.227 209.404 189.188 209.084C190.148 208.71 191.243 208.363 192.471 208.043C193.699 207.669 194.953 207.376 196.234 207.162C197.569 206.895 198.69 206.788 199.598 206.842C200.559 206.842 201.199 207.082 201.52 207.562C201.893 207.99 201.733 208.737 201.039 209.805C197.836 209.858 194.846 210.792 192.07 212.607C189.294 214.423 186.732 216.665 184.383 219.334C182.034 222.003 179.898 224.913 177.977 228.062C176.055 231.159 174.373 234.042 172.932 236.711C171.544 239.38 170.369 241.596 169.408 243.357C168.501 245.119 167.833 246 167.406 246C167.353 246 167.113 245.893 166.686 245.68C166.258 245.413 165.938 245.226 165.725 245.119ZM208.646 245.119C206.404 244.212 204.99 242.85 204.402 241.035C203.868 239.22 203.895 237.218 204.482 235.029C205.07 232.787 206.084 230.492 207.525 228.143C208.967 225.74 210.568 223.551 212.33 221.576C214.092 219.601 215.854 217.946 217.615 216.611C219.43 215.223 220.979 214.449 222.26 214.289C225.57 213.862 228.159 214.102 230.027 215.01C231.949 215.864 233.257 217.118 233.951 218.773C234.645 220.428 234.832 222.377 234.512 224.619C234.191 226.808 233.471 229.023 232.35 231.266C231.282 233.508 229.867 235.67 228.105 237.752C226.397 239.834 224.475 241.596 222.34 243.037C220.258 244.425 218.042 245.359 215.693 245.84C213.344 246.267 210.995 246.027 208.646 245.119ZM207.766 240.555C208.193 242.263 209.1 243.224 210.488 243.438C211.876 243.598 213.478 243.251 215.293 242.396C217.161 241.489 219.11 240.208 221.139 238.553C223.167 236.844 225.009 235.003 226.664 233.027C228.372 231.052 229.76 229.077 230.828 227.102C231.949 225.073 232.483 223.311 232.43 221.816C232.43 220.322 231.709 219.201 230.268 218.453C228.88 217.652 226.531 217.492 223.221 217.973C222.473 218.667 221.512 219.521 220.338 220.535C219.163 221.496 217.936 222.564 216.654 223.738C215.426 224.913 214.199 226.194 212.971 227.582C211.743 228.917 210.675 230.305 209.768 231.746C208.86 233.188 208.193 234.656 207.766 236.15C207.392 237.645 207.392 239.113 207.766 240.555ZM286.562 244.158C285.975 243.464 285.628 242.69 285.521 241.836C285.468 240.928 285.521 240.048 285.682 239.193C285.895 238.286 286.162 237.432 286.482 236.631C286.856 235.777 287.203 235.003 287.523 234.309C287.737 233.775 288.164 232.814 288.805 231.426C289.499 229.984 290.219 228.49 290.967 226.941C291.768 225.393 292.515 223.952 293.209 222.617C293.903 221.229 294.383 220.268 294.65 219.734V217.973C294.117 217.706 293.022 218.079 291.367 219.094C289.712 220.055 287.79 221.416 285.602 223.178C283.413 224.886 281.09 226.808 278.635 228.943C276.179 231.079 273.857 233.134 271.668 235.109C269.533 237.031 267.664 238.766 266.062 240.314C264.461 241.809 263.447 242.797 263.02 243.277C261.845 243.651 261.071 243.411 260.697 242.557C260.377 241.649 260.297 240.421 260.457 238.873C260.617 237.271 260.938 235.51 261.418 233.588C261.898 231.613 262.379 229.771 262.859 228.062C263.393 226.301 263.847 224.806 264.221 223.578C264.648 222.35 264.835 221.683 264.781 221.576C263.714 221.202 262.592 221.336 261.418 221.977C260.243 222.617 259.042 223.578 257.814 224.859C256.587 226.087 255.359 227.555 254.131 229.264C252.903 230.919 251.675 232.6 250.447 234.309C249.219 235.964 248.045 237.565 246.924 239.113C245.803 240.608 244.735 241.836 243.721 242.797C242.706 243.758 241.745 244.318 240.838 244.479C239.984 244.639 239.236 244.238 238.596 243.277C238.542 243.224 238.516 243.09 238.516 242.877C238.516 242.663 238.542 242.503 238.596 242.396C238.863 241.863 239.263 241.035 239.797 239.914C240.384 238.74 241.025 237.432 241.719 235.99C242.413 234.549 243.16 233.054 243.961 231.506C244.762 229.904 245.509 228.41 246.203 227.021C246.951 225.58 247.591 224.299 248.125 223.178C248.712 222.057 249.166 221.229 249.486 220.695C249.753 220.161 250.127 219.494 250.607 218.693C251.088 217.839 251.568 217.038 252.049 216.291C252.529 215.49 252.956 214.823 253.33 214.289C253.704 213.702 253.891 213.408 253.891 213.408H255.812C256.186 214.636 256.133 215.784 255.652 216.852C255.172 217.919 254.585 218.96 253.891 219.975C253.25 220.989 252.689 222.003 252.209 223.018C251.782 223.979 251.782 225.02 252.209 226.141C256.8 222.083 260.324 219.094 262.779 217.172C265.288 215.25 267.05 214.156 268.064 213.889C269.079 213.622 269.559 214.022 269.506 215.09C269.452 216.158 269.212 217.599 268.785 219.414C268.411 221.229 268.011 223.311 267.584 225.66C267.21 227.956 267.184 230.198 267.504 232.387H268.465C268.785 232.173 269.319 231.773 270.066 231.186C270.814 230.598 271.615 229.958 272.469 229.264C273.376 228.57 274.204 227.929 274.951 227.342C275.752 226.755 276.312 226.354 276.633 226.141C277.22 225.66 278.074 224.993 279.195 224.139C280.316 223.285 281.438 222.43 282.559 221.576C283.733 220.669 284.774 219.895 285.682 219.254C286.643 218.56 287.257 218.133 287.523 217.973C287.737 217.812 288.191 217.492 288.885 217.012C289.632 216.478 290.433 215.917 291.287 215.33C292.195 214.743 293.049 214.209 293.85 213.729C294.65 213.195 295.238 212.794 295.611 212.527C296.412 211.993 297.16 211.753 297.854 211.807C298.548 211.86 299.108 212.127 299.535 212.607C300.016 213.035 300.309 213.648 300.416 214.449C300.523 215.197 300.416 216.051 300.096 217.012C298.814 219.414 297.533 221.763 296.252 224.059C295.024 226.354 293.876 228.676 292.809 231.025C291.794 233.321 290.94 235.697 290.246 238.152C289.605 240.608 289.258 243.224 289.205 246C288.938 246.16 288.645 246.16 288.324 246C288.057 245.84 287.79 245.626 287.523 245.359C287.257 245.092 287.016 244.826 286.803 244.559C286.643 244.292 286.562 244.158 286.562 244.158ZM295.611 274.027C295.131 271.038 295.291 267.995 296.092 264.898C296.839 261.855 297.854 258.812 299.135 255.77C300.363 252.727 301.617 249.684 302.898 246.641C304.18 243.651 305.061 240.715 305.541 237.832C305.541 237.725 305.755 237.405 306.182 236.871C306.662 236.337 307.169 235.777 307.703 235.189C308.29 234.549 308.798 233.962 309.225 233.428C309.705 232.84 309.972 232.493 310.025 232.387C310.88 230.518 311.734 228.81 312.588 227.262C313.495 225.66 314.189 224.112 314.67 222.617C315.15 221.122 315.364 219.654 315.311 218.213C315.257 216.718 314.723 215.117 313.709 213.408C313.602 213.301 313.549 213.141 313.549 212.928C313.549 212.714 313.602 212.581 313.709 212.527C315.257 210.552 317.046 208.897 319.074 207.562C321.103 206.228 323.265 205.16 325.561 204.359C327.856 203.559 330.232 203.025 332.688 202.758C335.143 202.491 337.572 202.438 339.975 202.598C342.003 204.306 343.285 206.255 343.818 208.443C344.406 210.579 344.432 212.821 343.898 215.17C343.418 217.465 342.484 219.788 341.096 222.137C339.761 224.486 338.213 226.674 336.451 228.703C334.689 230.732 332.821 232.547 330.846 234.148C328.924 235.75 327.109 236.978 325.4 237.832C323.852 238.579 322.704 239.087 321.957 239.354C321.263 239.567 320.569 239.701 319.875 239.754C319.181 239.807 318.327 239.861 317.312 239.914C316.352 239.967 314.857 240.181 312.828 240.555C311.921 240.715 311.146 241.142 310.506 241.836C309.919 242.477 309.411 243.224 308.984 244.078C308.611 244.879 308.29 245.706 308.023 246.561C307.81 247.468 307.596 248.189 307.383 248.723C306.422 251.072 305.541 253.234 304.74 255.209C303.993 257.238 303.272 259.213 302.578 261.135C301.831 263.11 301.11 265.139 300.416 267.221C299.722 269.303 299.001 271.572 298.254 274.027C298.147 274.294 297.96 274.508 297.693 274.668C297.426 274.882 297.16 274.988 296.893 274.988C296.572 275.042 296.305 274.988 296.092 274.828C295.825 274.721 295.665 274.454 295.611 274.027ZM313.709 236.951C316.165 237.432 318.54 237.298 320.836 236.551C323.185 235.803 325.374 234.656 327.402 233.107C329.431 231.506 331.246 229.611 332.848 227.422C334.503 225.18 335.891 222.831 337.012 220.375C338.133 217.919 338.96 215.464 339.494 213.008C340.028 210.499 340.188 208.203 339.975 206.121C339.227 205.48 338.32 205.16 337.252 205.16C336.238 205.107 335.33 205.133 334.529 205.24C331.646 205.614 329.378 206.361 327.723 207.482C326.068 208.55 324.706 209.911 323.639 211.566C322.624 213.221 321.743 215.143 320.996 217.332C320.249 219.467 319.341 221.79 318.273 224.299C318.06 224.673 317.74 225.34 317.312 226.301C316.885 227.208 316.432 228.196 315.951 229.264C315.471 230.278 315.017 231.266 314.59 232.227C314.163 233.188 313.869 233.855 313.709 234.229V236.951ZM353.508 245.119C353.454 245.012 353.428 244.719 353.428 244.238C353.428 243.758 353.454 243.438 353.508 243.277C353.668 242.69 353.962 241.676 354.389 240.234C354.816 238.74 355.27 237.191 355.75 235.59C356.23 233.935 356.684 232.387 357.111 230.945C357.538 229.504 357.832 228.49 357.992 227.902C358.206 227.155 358.446 226.301 358.713 225.34C358.98 224.326 359.033 223.365 358.873 222.457C358.072 222.35 357.085 222.457 355.91 222.777C354.736 223.044 353.561 223.285 352.387 223.498C351.266 223.658 350.198 223.658 349.184 223.498C348.223 223.285 347.529 222.644 347.102 221.576C347.742 220.242 348.703 219.387 349.984 219.014C351.266 218.587 352.654 218.293 354.148 218.133C355.643 217.973 357.058 217.732 358.393 217.412C359.781 217.092 360.875 216.371 361.676 215.25C362.156 213.862 362.717 212.18 363.357 210.205C364.051 208.176 364.772 206.068 365.52 203.879C366.267 201.69 367.068 199.528 367.922 197.393C368.829 195.257 369.764 193.362 370.725 191.707C371.312 191.333 371.792 191.307 372.166 191.627C372.54 191.947 372.807 192.428 372.967 193.068C373.18 193.656 373.314 194.27 373.367 194.91C373.421 195.551 373.421 195.978 373.367 196.191C373.047 197.579 372.486 199.074 371.686 200.676C370.938 202.224 370.217 203.799 369.523 205.4C368.883 207.002 368.349 208.604 367.922 210.205C367.548 211.807 367.548 213.328 367.922 214.77H385.139C385.192 214.77 385.326 214.956 385.539 215.33C385.753 215.65 385.939 215.917 386.1 216.131C386.367 216.878 386.073 217.385 385.219 217.652C384.365 217.919 383.217 218.106 381.775 218.213C380.334 218.266 378.679 218.32 376.811 218.373C374.995 218.373 373.234 218.507 371.525 218.773C369.87 218.987 368.376 219.387 367.041 219.975C365.706 220.508 364.799 221.336 364.318 222.457C362.93 226.034 361.649 229.637 360.475 233.268C359.3 236.844 358.179 240.475 357.111 244.158C357.005 244.318 356.791 244.585 356.471 244.959C356.15 245.279 355.803 245.573 355.43 245.84C355.056 246.053 354.682 246.133 354.309 246.08C353.988 246.027 353.721 245.706 353.508 245.119Z" fill="black"/>
<path d="M442 222.511C442 219.848 442.629 212.125 448.623 204.291C452.33 199.445 468.633 200.432 478.968 202.105C485.784 203.209 490.631 213.509 507.305 226.683C513.862 231.864 527.324 235.062 535.313 236.64C543.302 238.219 546.676 236.726 549.118 234.927C556.963 229.148 556.836 222.833 558.209 213.461C559.359 205.605 555.813 197.973 552.03 193.711C547.968 189.135 540.542 187.864 533.314 186.456C522.754 184.4 509.149 186.437 504.902 188.916C499.391 192.132 496.859 199.156 494.844 204.438C493.194 208.762 488.808 220.585 483.808 235.58C481.382 242.855 478.663 246.3 475.551 249.559C473.082 252.146 469.856 252.528 467.314 252.69C463.908 252.907 460.77 251.989 458.681 250.422C452.562 245.831 452.988 227.419 456.996 212.756C459.792 202.526 478.66 196.116 490.687 194.33C500.659 192.849 509.15 194.762 514.334 196.725C533.278 203.9 542.571 217.528 549.254 225.151C564.904 243.006 576.829 255.106 578.877 256.547C583.588 259.861 588.121 259.029 590.427 258.513C595.032 257.483 599.212 246.703 608.372 226.806C615.558 211.198 614.096 191.008 611.332 185.378C610.881 184.459 608.802 185.02 607.968 185.536C607.133 186.051 606.912 187.083 607.124 187.966C608.3 192.87 620.966 193.728 627.265 195.826C631.122 197.111 648.432 202.681 671.729 210.645C679.953 213.457 681.008 213.496 681.232 212.918C681.456 212.34 680.852 211.074 679.38 209.836C676.029 207.018 666.799 204.477 654.235 201.44C642.542 198.614 624.856 198.545 606.325 198.719C590.862 198.864 580.848 206.399 573.565 212.292C567.912 216.866 561.302 232.765 556.947 241.763C555.829 244.073 553.32 245.922 550.778 247.615C548.166 249.354 544.162 249.426 540.641 248.953C534.913 248.182 534.393 238.71 533.603 220.993C532.837 203.829 546.086 194.302 553.413 189.938C565.597 182.683 582.343 187.243 593.823 192.344C598.45 194.399 606.883 201.248 619.232 211.097C636.372 224.767 641.69 233.713 641.763 235.477C641.867 237.99 635.012 239.467 624.6 241.13C608.191 243.75 592.275 243.915 582.601 243.435C572.468 242.932 569.314 237.583 564.514 235.14C560.864 233.282 555.901 233.124 541.695 232.712C529.639 232.364 507.719 232.573 495.331 232.437C476.554 232.231 469.868 230.726 465.104 229.67C463.107 229.228 462.888 226.644 461.256 225.435C460.384 224.789 458.658 225.024 457.638 225.396C455.806 226.064 455.02 228.022 453.512 229.318C452.058 230.567 449.674 230.554 447.747 230.214C446.784 230.044 446.128 229.194 445.857 228.382C445.298 226.708 446.913 225.026 447.813 224.144C448.437 223.532 444.847 224.695 443.637 224.625C443.218 224.6 444.067 223.48 445.4 222.75C457.118 216.329 476.884 215.952 490.067 213.796C501.496 211.927 522.421 207.985 535.751 205.453C560.913 200.672 566.248 199.595 584.013 197.333C602.03 195.039 624.507 192.936 626.408 191.689C628.146 190.548 626.687 188.227 626.299 186.974C624.496 181.161 646.855 186.67 669.583 194.257C688.684 200.634 699.413 211.986 704.78 217.716C709.386 222.634 709.262 229.354 708.764 234.25C708.382 237.996 704.1 239.349 701.788 240.074C691.709 243.237 670.405 238.928 662.158 235.096C658.09 233.207 656.307 229.889 655.298 227.718C654.833 226.717 654.799 225.828 655.071 224.771C656.965 217.411 672.387 208.209 676.978 203.143C679.612 200.237 677.132 191.55 679.233 185.049C679.568 184.015 681.263 184.03 682.549 184.069C689.566 184.286 697.059 190.301 700.935 194.411C704.143 197.813 705.297 206.165 705.578 217.167C705.654 220.12 704.014 221.722 701.857 223.361C698.612 225.827 693.326 226.703 688.196 227.257C682.685 227.852 673.194 224.67 660.467 218.642C647.785 212.635 639.861 205.45 634.756 200.248C625.818 191.139 620.734 185.665 615.051 184.4C608.732 182.993 602.452 187.972 591.672 192.252C584.69 195.024 578.517 195.381 572.542 195.68C561.833 196.217 549.607 196.421 540.478 197.065C527.583 197.974 513.501 197.149 509.602 195.521C503.029 192.778 491.213 195.485 478.02 197.792C472.926 198.682 469.196 197.538 466.238 196.037C461.248 193.506 460.746 186.939 459.95 182.482C459.468 179.787 458.458 189.104 457.457 192.65C455.636 199.102 450.525 206.013 450.352 207.621C451.196 209.152 452.744 210.623 454.307 212.154C455.021 212.975 455.575 213.888 456.851 215.699" stroke="black" stroke-width="5" stroke-linecap="round"/>
<path d="M707 219C708.397 218.149 716.104 213.488 721.83 210.504C727.45 207.574 738.363 210.254 743.178 211.637C745.151 212.204 747.493 212.376 749 212.114C746.663 209.882 744.607 207.327 743.214 205.903C742.525 205.198 741.872 204.529 740.418 203" stroke="black" stroke-width="5" stroke-linecap="round"/>
<path d="M750 212C749.839 212 748.891 212.779 747.101 214.263C746.176 214.968 745.216 215.574 744.248 216.182C743.281 216.791 742.336 217.383 740 219" stroke="black" stroke-width="5" stroke-linecap="round"/>
<path d="M413 216C415.712 214.102 422.793 209.402 427.152 207.302C428.377 206.811 429.659 206.374 432.966 206.149C436.272 205.924 441.564 205.924 448 206.359" stroke="black" stroke-width="5"/>
<path d="M381 216.314C383.293 216.314 389.734 217.137 394.568 218.643C399.576 219.382 404.62 218.905 409.155 217.843C410.292 217.589 411.399 217.335 414 216" stroke="black" stroke-width="5"/>
</svg>
